<?xml version="1.0" encoding="UTF-8" standalone="no"?>
<!-- Created with Inkscape (http://www.inkscape.org/) -->

<svg
   xmlns:dc="http://purl.org/dc/elements/1.1/"
   xmlns:cc="http://creativecommons.org/ns#"
   xmlns:rdf="http://www.w3.org/1999/02/22-rdf-syntax-ns#"
   xmlns:svg="http://www.w3.org/2000/svg"
   xmlns="http://www.w3.org/2000/svg"
   xmlns:sodipodi="http://sodipodi.sourceforge.net/DTD/sodipodi-0.dtd"
   xmlns:inkscape="http://www.inkscape.org/namespaces/inkscape"
   width="1545.2343"
   height="537.28125"
   id="svg2"
   version="1.1"
   inkscape:version="0.48.2 r9819"
   sodipodi:docname="Nuovo documento 1">
  <defs
     id="defs4">
    <inkscape:path-effect
       effect="skeletal"
       id="path-effect3847"
       is_visible="true"
       pattern="m -64.649763,239.35539 10,5 0,-10 z"
       copytype="single_stretched"
       prop_scale="1"
       scale_y_rel="false"
       spacing="0"
       normal_offset="0"
       tang_offset="0"
       prop_units="false"
       vertical_pattern="false"
       fuse_tolerance="0" />
    <inkscape:path-effect
       effect="skeletal"
       id="path-effect3843"
       is_visible="true"
       pattern="M 0,0 0,10 10,5 z"
       copytype="single_stretched"
       prop_scale="1"
       scale_y_rel="false"
       spacing="0"
       normal_offset="0"
       tang_offset="0"
       prop_units="false"
       vertical_pattern="false"
       fuse_tolerance="0" />
    <inkscape:path-effect
       effect="skeletal"
       id="path-effect3833"
       is_visible="true"
       pattern="M 0,5 10,10 10,0 z"
       copytype="single_stretched"
       prop_scale="1"
       scale_y_rel="false"
       spacing="0"
       normal_offset="0"
       tang_offset="0"
       prop_units="false"
       vertical_pattern="false"
       fuse_tolerance="0" />
    <inkscape:path-effect
       effect="skeletal"
       id="path-effect3815"
       is_visible="true"
       pattern="M 0,0 0,10 10,5 z"
       copytype="single_stretched"
       prop_scale="1"
       scale_y_rel="false"
       spacing="0"
       normal_offset="0"
       tang_offset="0"
       prop_units="false"
       vertical_pattern="false"
       fuse_tolerance="0" />
    <inkscape:path-effect
       effect="skeletal"
       id="path-effect3809"
       is_visible="true"
       pattern="M 0,0 0,10 10,5 z"
       copytype="single_stretched"
       prop_scale="1"
       scale_y_rel="false"
       spacing="0"
       normal_offset="0"
       tang_offset="0"
       prop_units="false"
       vertical_pattern="false"
       fuse_tolerance="0" />
    <inkscape:path-effect
       effect="skeletal"
       id="path-effect2989"
       is_visible="true"
       pattern="M 0,0 0,10 10,5 z"
       copytype="single_stretched"
       prop_scale="1"
       scale_y_rel="false"
       spacing="0"
       normal_offset="0"
       tang_offset="0"
       prop_units="false"
       vertical_pattern="false"
       fuse_tolerance="0" />
    <inkscape:path-effect
       effect="skeletal"
       id="path-effect3847-5"
       is_visible="true"
       pattern="m -83.59381,-297.85714 10,5 0,-10 z"
       copytype="single_stretched"
       prop_scale="1"
       scale_y_rel="false"
       spacing="0"
       normal_offset="0"
       tang_offset="0"
       prop_units="false"
       vertical_pattern="false"
       fuse_tolerance="0" />
  </defs>
  <sodipodi:namedview
     id="base"
     pagecolor="#ffffff"
     bordercolor="#666666"
     borderopacity="1.0"
     inkscape:pageopacity="0.0"
     inkscape:pageshadow="2"
     inkscape:zoom="0.49497475"
     inkscape:cx="651.5481"
     inkscape:cy="289.09634"
     inkscape:document-units="px"
     inkscape:current-layer="g3874"
     showgrid="false"
     fit-margin-top="0"
     fit-margin-left="0"
     fit-margin-right="0"
     fit-margin-bottom="0"
     inkscape:window-width="1278"
     inkscape:window-height="722"
     inkscape:window-x="0"
     inkscape:window-y="25"
     inkscape:window-maximized="1" />
  <metadata
     id="metadata7">
    <rdf:RDF>
      <cc:Work
         rdf:about="">
        <dc:format>image/svg+xml</dc:format>
        <dc:type
           rdf:resource="http://purl.org/dc/dcmitype/StillImage" />
        <dc:title></dc:title>
      </cc:Work>
    </rdf:RDF>
  </metadata>
  <g
     inkscape:label="Livello 1"
     inkscape:groupmode="layer"
     id="layer1"
     transform="translate(-304.48453,-524.21875)">
    <g
       id="g3874">
      <path
         sodipodi:nodetypes="csssccssscc"
         inkscape:connector-curvature="0"
         id="path3835"
         d="m 1055.3502,524.63257 c -66.91296,9.06825 -243.64017,32.5043 -265.71424,66.96853 -16.22848,25.33752 239.81244,48.53963 114.2857,78.12994 -155.34362,36.61901 -364.51227,56.34592 -539.99999,113.47445 -277.611053,90.3739 507.35748,226.79081 625.71427,267.87401 l 859.99996,2.8953 C 1331.9723,953.2317 520.59633,849.39631 698.20738,796.22715 876.46897,742.86324 908.57806,736.11384 1072.493,682.7527 1191.8998,643.88085 892.52698,606.91923 858.20739,587.88062 805.366,558.56714 1018.5387,534.77116 1070.2994,525.17742 z"
         style="fill:#333333;stroke:#000000;stroke-width:0.8068971px;stroke-linecap:butt;stroke-linejoin:miter;stroke-opacity:1" />
      <path
         style="fill:#ffffff;fill-opacity:1;stroke:#ffffff;stroke-width:0.8068971px;stroke-linecap:butt;stroke-linejoin:miter;stroke-opacity:1"
         d="m 1061.4111,525.29026 c -22.4379,2.9834 -44.8517,6.15524 -67.22318,9.61061 -27.33405,4.22183 -54.61949,8.8144 -81.72983,14.32739 -12.44,2.5297 -24.84615,5.25363 -37.15334,8.39331 -3e-5,0 -6e-5,10e-6 -9e-5,2e-5 -10.0463,2.56252 -20.05749,5.35812 -29.81325,8.9326 -10e-6,0 -3e-5,1e-5 -4e-5,1e-5 -3.7349,1.36827 -7.43863,2.857 -11.02702,4.61214 -2.72823,1.33245 -5.42438,2.8162 -7.85966,4.70461 -1.6862,1.29208 -3.32821,2.85024 -4.26478,4.89833 -0.36149,0.80037 -0.5764,1.684 -0.57348,2.59215 0.01,0.91279 0.24301,1.80168 0.63558,2.6 10e-6,1e-5 2e-5,3e-5 3e-5,5e-5 0.39414,0.78287 0.97079,1.3998 1.55836,1.91247 0.83112,0.73952 1.73928,1.35821 2.65557,1.92086 2.66234,1.63807 5.50181,2.92223 8.33916,4.12311 3.90985,1.65701 7.88975,3.12673 11.88416,4.5278 4e-5,10e-6 7e-5,2e-5 10e-5,3e-5 4.89722,1.71796 9.83006,3.32464 14.77496,4.88135 11.78506,3.71011 23.64972,7.1472 35.51736,10.54859 12.97578,3.71906 25.9666,7.37437 38.9281,11.11779 12.33619,3.5629 24.64974,7.18824 36.86448,11.10437 9.90223,3.17557 19.75734,6.46993 29.29451,10.49286 3.4447,1.45396 6.8369,2.98982 10.0516,4.80476 0,10e-6 0,2e-5 0,3e-5 2.2118,1.26173 4.3551,2.55349 5.9671,4.28445 0.5213,0.56965 0.9738,1.1354 1.2012,1.73037 0.1664,0.43977 0.2437,0.89906 0.1382,1.2595 0,2e-5 0,4e-5 0,6e-5 -0.075,0.4223 -0.4063,0.85461 -0.8083,1.27356 -0.5939,0.59351 -1.3855,1.05661 -2.2422,1.49477 -0.9272,0.46628 -1.9467,0.83651 -3.0034,1.22294 0,0 0,10e-6 0,10e-6 -1.679,0.61021 -3.385,1.17088 -5.1036,1.72058 -5.2281,1.67177 -10.50857,3.2046 -15.8037,4.7169 -16.68034,4.76355 -33.45385,9.21726 -50.24229,13.63842 -48.61935,12.8035 -97.37424,25.09862 -146.14369,37.35338 -1e-5,1e-5 -3e-5,1e-5 -4e-5,1e-5 -50.73797,12.74938 -101.50828,25.37571 -152.27293,38.03388 -19.30837,4.81455 -38.61827,9.63021 -57.91829,14.49319 -11.61465,2.92639 -23.25337,5.82504 -34.85412,8.93488 -7.30622,1.95575 -14.59429,4.21085 -21.66466,7.15537 -3e-5,2e-5 -6e-5,3e-5 -9e-5,4e-5 -5.0186,2.07885 -10.03299,4.5464 -14.55557,7.9345 -1.69084,1.26742 -3.31796,2.70659 -4.77075,4.37303 -10e-6,2e-5 -2e-5,3e-5 -3e-5,4e-5 -1.21612,1.39045 -2.29292,2.97672 -3.10153,4.75853 -10e-6,3e-5 -3e-5,7e-5 -5e-5,1.1e-4 -0.72004,1.59724 -1.17241,3.33306 -1.29503,5.12785 -0.11148,1.79551 0.10606,3.5677 0.58803,5.23631 1.18592,3.97526 3.50479,7.31085 6.07348,10.07922 3.49073,3.82641 7.51519,6.99835 11.62551,9.83554 5.36944,3.71927 11.01043,6.9588 16.72299,9.95392 7.03219,3.68957 14.22379,7.02522 21.47512,10.16276 1e-5,10e-6 3e-5,2e-5 4e-5,2e-5 18.23536,7.89055 36.91578,14.62527 55.68964,20.91468 3e-5,10e-6 7e-5,2e-5 10e-5,3e-5 23.15727,7.7595 46.5397,14.79043 70.00549,21.45611 3e-5,0 6e-5,10e-6 9e-5,2e-5 56.20612,15.96617 112.95134,29.90581 169.82777,43.10065 62.32369,14.45913 124.87051,27.91436 187.51361,40.84463 59.4674,12.27485 119.0329,24.05354 178.6478,35.54864 47.7147,9.2005 95.4628,18.1917 143.1992,27.2027 0,10e-5 10e-5,10e-5 10e-5,10e-5 16.6733,3.1474 33.3393,6.292 49.9819,9.5149 6.0486,1.1714 12.089,2.3521 18.1161,3.5657 4.3409,0.8742 8.6596,1.7561 12.9436,2.6995 l 2.1252,-9.7716 c -4.3879,-0.9427 -8.7693,-1.8149 -13.1328,-2.6704 -6.0698,-1.1904 -12.1399,-2.3453 -18.2057,-3.4883 -16.6895,-3.145 -33.3859,-6.2085 -50.0744,-9.2719 -47.7838,-8.7714 -95.5642,-17.52 -143.2993,-26.4756 -59.6444,-11.19004 -119.232,-22.66187 -178.7172,-34.62881 C 984.23895,962.10415 921.68575,948.9767 859.36304,934.84754 802.4797,921.951 745.77131,908.32397 689.62636,892.67871 c -2e-5,-10e-6 -4e-5,-10e-6 -5e-5,-10e-6 -23.439,-6.5316 -46.76791,-13.41783 -69.85042,-21.02412 -4e-5,-10e-6 -7e-5,-2e-5 -10e-5,-3e-5 -18.72232,-6.17083 -37.28668,-12.75481 -55.35221,-20.46769 -3e-5,-10e-6 -6e-5,-3e-5 -9e-5,-4e-5 -7.18076,-3.06589 -14.26764,-6.30797 -21.16331,-9.88357 -5.60693,-2.90943 -11.07887,-6.0094 -16.2194,-9.53824 -3.94225,-2.71618 -7.68652,-5.61041 -10.78983,-9.00913 -2.23947,-2.49996 -4.19473,-5.14627 -4.98386,-8.02469 -0.33464,-1.16512 -0.49716,-2.36112 -0.42176,-3.50873 0.0641,-1.14487 0.36642,-2.30403 0.84622,-3.39692 0.53965,-1.24101 1.34751,-2.41994 2.29472,-3.53453 2e-5,-3e-5 4e-5,-5e-5 6e-5,-7e-5 1.14307,-1.33942 2.50828,-2.54695 3.98421,-3.67645 3.98261,-3.04941 8.62994,-5.33713 13.44641,-7.38761 3e-5,-1e-5 6e-5,-3e-5 9e-5,-4e-5 6.7657,-2.86464 13.84041,-5.08658 21.0187,-7.05288 11.52995,-3.15339 23.1317,-6.10465 34.73963,-9.09173 3e-5,-10e-6 6e-5,-2e-5 10e-5,-3e-5 19.26806,-4.95814 38.55003,-9.86998 57.83381,-14.78156 50.69862,-12.91292 101.40745,-25.79515 152.08617,-38.801 4e-5,-10e-6 7e-5,-10e-6 10e-5,-2e-5 48.70912,-12.50036 97.41415,-25.04388 145.98707,-38.09671 16.76965,-4.50639 33.53867,-9.04949 50.22467,-13.90541 5.29453,-1.54068 10.59201,-3.1077 15.85291,-4.81886 1.7285,-0.56208 3.4612,-1.14161 5.1833,-1.77692 1.0597,-0.38864 2.1611,-0.80054 3.2474,-1.34707 10e-5,-1e-5 10e-5,-2e-5 10e-5,-2e-5 0.972,-0.48173 1.9587,-1.09099 2.826,-1.93123 0.6404,-0.60394 1.1821,-1.41876 1.4406,-2.41831 0,-2e-5 0,-4e-5 0,-7e-5 0.2012,-0.94632 0.082,-1.87888 -0.2612,-2.68075 -0.4178,-0.97604 -1.0283,-1.77769 -1.6757,-2.44042 -1.9283,-2.00262 -4.2587,-3.42319 -6.5348,-4.67781 0,-2e-5 0,-3e-5 -10e-5,-5e-5 -3.3422,-1.86151 -6.8188,-3.41744 -10.308,-4.86682 -9.66274,-4.01631 -19.59241,-7.28215 -29.5274,-10.4113 -12.26576,-3.86433 -24.6151,-7.43297 -36.9753,-10.93538 -10e-6,0 -3e-5,-10e-6 -4e-5,-10e-6 -12.98843,-3.68051 -25.99824,-7.27064 -38.98737,-10.92293 -11.88153,-3.34092 -23.74969,-6.71425 -35.53147,-10.35845 -4.9433,-1.52902 -9.86918,-3.10596 -14.755,-4.79247 -3.98686,-1.37639 -7.94666,-2.8156 -11.82568,-4.43707 -2.82281,-1.18159 -5.60886,-2.42085 -8.18298,-3.99105 -0.88459,-0.54072 -1.73478,-1.10975 -2.48264,-1.77288 -0.5266,-0.47707 -1.0068,-0.96078 -1.26998,-1.51539 -0.31819,-0.64793 -0.51246,-1.35405 -0.51782,-2.05265 -0.0122,-0.697 0.16254,-1.40843 0.45392,-2.07451 0.75987,-1.76243 2.27291,-3.17403 3.87456,-4.44864 2.32209,-1.82548 4.94264,-3.28001 7.62907,-4.61346 3.52827,-1.74876 7.18877,-3.24072 10.89512,-4.62054 3e-5,-10e-6 6e-5,-3e-5 9e-5,-4e-5 9.68264,-3.60421 19.64786,-6.44024 29.66713,-9.0505 12.27056,-3.1963 24.64977,-5.97958 37.06919,-8.57032 27.06545,-5.64592 54.32028,-10.37444 81.62971,-14.73327 22.35099,-3.5674 44.74759,-6.85182 67.17019,-9.94805 z"
         inkscape:connector-curvature="0" />
    </g>
  </g>
</svg>
